# This file uses centimeters as units for non-parametric coordinates.

mtllib mushroom.mtl
g default
v -0.403795 2.204913 0.385941
v 0.383770 2.204913 0.385941
v -1.153280 3.801586 1.153280
v 1.153280 3.801586 1.153280
v -1.153280 3.801586 -1.153280
v 1.153280 3.801586 -1.153280
v -0.403795 2.204913 -0.401625
v 0.383770 2.204913 -0.401625
v -0.500000 5.310829 0.500000
v 0.500000 5.310829 0.500000
v 0.500000 5.310829 -0.500000
v -0.500000 5.310829 -0.500000
v 1.274500 4.263637 1.272809
v -1.265204 4.263637 1.201315
v -1.263009 4.263637 -1.271648
v 1.214962 4.263637 -1.292024
v 1.582435 3.828537 1.574556
v -1.574332 3.828537 1.492993
v -1.571827 3.828537 -1.587632
v 1.514512 3.828537 -1.610878
v 0.882014 4.973071 0.781751
v -0.893610 5.025161 0.961309
v -0.815585 4.993506 -0.854159
v 0.875594 4.996075 -0.898553
v 0.528985 2.450679 0.531155
v -0.549010 2.450679 0.531155
v -0.549010 2.450678 -0.546840
v 0.528985 2.450678 -0.546840
v 0.322190 3.612401 0.324361
v -0.342216 3.612401 0.324361
v -0.342216 3.612401 -0.340045
v 0.322190 3.612401 -0.340045
v -0.153576 4.894280 1.181549
v -0.143893 4.316472 1.638034
v -0.179199 3.825984 2.001362
v -0.113085 3.802341 1.243437
v -0.039383 3.603196 0.427444
v -0.061370 2.363807 0.650404
v -0.045931 2.098829 0.416724
v -0.045931 2.098829 -0.432409
v -0.061370 2.363807 -0.724235
v -0.039383 3.603196 -0.501274
v -0.113085 3.802341 -1.243437
v -0.179199 3.825984 -1.899122
v -0.143893 4.316472 -1.535794
v -0.095382 5.085516 -1.043854
v -0.045606 5.445528 -0.539087
v -0.045606 5.445528 0.641327
v 1.132653 5.079176 -0.011648
v 1.622511 4.313388 -0.017547
v 1.989009 3.826133 -0.028895
v 1.238174 3.802296 -0.013814
v 0.407502 3.603734 -0.011453
v 0.629519 2.368878 -0.014126
v 0.412757 2.105021 -0.012249
v -0.048575 1.991128 -0.012647
v -0.432782 2.105021 -0.012249
v -0.723786 2.368878 -0.014126
v -0.501769 3.603734 -0.011453
v -1.238174 3.802296 -0.013814
v -1.971250 3.826133 -0.028895
v -1.604752 4.313388 -0.017547
v -1.114894 5.079176 -0.011648
v -0.612263 5.437666 -0.005596
v -0.048963 5.582280 -0.006101
v 0.630022 5.437666 -0.005596
vt 0.561730 0.412363
vt 0.529212 0.457728
vt 0.492375 0.481410
vt 0.814345 0.702154
vt 0.280891 0.283080
vt 0.258808 0.220693
vt 0.312583 0.211534
vt 0.331270 0.266479
vt 0.646683 0.569807
vt 0.589978 0.545722
vt 0.609260 0.515142
vt 0.642857 0.473666
vt 0.571892 0.482156
vt 0.604113 0.441303
vt 0.548580 0.508936
vt 0.704598 0.576531
vt 0.757197 0.600422
vt 0.731590 0.632700
vt 0.682392 0.606696
vt 0.641991 0.179315
vt 0.622046 0.324816
vt 0.564140 0.362970
vt 0.558329 0.153461
vt 0.751735 0.363582
vt 0.882751 0.381106
vt 0.925538 0.432967
vt 0.735215 0.448415
vt 0.924623 0.240309
vt 0.557202 0.209567
vt 0.939109 0.120299
vt 0.812476 0.082097
vt 0.375378 0.554593
vt 0.998265 0.083724
vt 0.074451 0.366742
vt 0.064542 0.173267
vt 0.158391 0.211313
vt 0.151670 0.339428
vt 0.491868 0.382632
vt 0.351251 0.486620
vt 0.319068 0.392889
vt 0.402497 0.336166
vt 0.388375 0.070901
vt 0.487518 0.227755
vt 0.391514 0.252454
vt 0.342579 0.153573
vt 0.209020 0.069052
vt 0.239637 0.163094
vt 0.221422 0.302987
vt 0.208819 0.244894
vt 0.298804 0.335404
vt 0.347775 0.312428
vt 0.446663 0.624205
vt 0.706044 0.804856
vt 0.796103 0.152905
vt 0.601268 0.717136
vt 0.851389 0.233400
vt 0.521800 0.662561
vt 0.483401 0.641932
vt 0.179863 0.490841
vt 0.210371 0.405494
vt 0.650179 0.008309
vt 0.678246 0.064035
vt 0.676503 0.776518
vt 0.768894 0.676500
vt 0.791640 0.648162
vt 0.244689 0.346998
vt 0.831991 0.000000
vt 0.556973 0.414521
vt 0.187192 0.000000
vt 0.000000 0.141297
vt 1.000000 0.248756
vt 0.421605 0.006386
vt 0.007625 0.395361
vt 0.149354 0.554670
vt 0.638807 0.746558
vt 0.838104 0.185360
vt 0.768243 0.282060
vt 0.723026 0.259644
vt 0.564326 0.691657
vt 0.817640 0.280105
vt 0.719567 0.204978
vt 0.743399 0.164986
vt 0.631752 0.405538
vt 0.590633 0.377401
vt 0.668854 0.535068
vt 0.837453 0.670361
vt 0.669013 0.437175
vt 0.858501 0.754525
vt 0.735325 0.837955
vt 0.871452 0.715252
vn 0.009835 -0.641370 0.767168
vn 0.227506 -0.616805 0.753520
vn 0.219342 0.062080 0.973671
vn -0.001631 0.000060 0.999999
vn -0.000149 1.000000 0.000721
vn 0.240744 0.970589 0.000495
vn 0.222471 0.937401 -0.267928
vn 0.001050 0.961164 -0.275975
vn -0.001230 -0.006893 -0.999976
vn 0.323007 0.046106 -0.945273
vn 0.268058 -0.664779 -0.697290
vn 0.010051 -0.698337 -0.715699
vn 0.001139 -0.966258 -0.257573
vn 0.240351 -0.938322 -0.248561
vn 0.247937 -0.968776 0.000149
vn -0.000065 -1.000000 -0.000034
vn 0.783191 -0.621780 0.001112
vn 0.762008 -0.606638 -0.226570
vn 0.976721 0.068423 -0.203307
vn 0.999992 0.003911 -0.000206
vn -0.686525 -0.669506 -0.283630
vn -0.717018 -0.697054 0.001169
vn -0.999984 -0.005629 -0.000163
vn -0.936031 0.048944 -0.348497
vn -0.000841 -0.993587 0.113066
vn 0.012780 -0.996686 0.080337
vn 0.241161 -0.266157 0.933275
vn -0.030176 -0.317384 0.947817
vn 0.113507 -0.993537 -0.000246
vn 0.080957 -0.996620 -0.013971
vn 0.942663 -0.145589 -0.300316
vn 0.946608 -0.321660 -0.021628
vn 0.014429 -0.996005 -0.088129
vn -0.000966 -0.992867 -0.119223
vn -0.013278 -0.314066 -0.949308
vn 0.174416 -0.287324 -0.941820
vn -0.081687 -0.996535 -0.015689
vn -0.116847 -0.993150 0.000019
vn -0.941298 -0.337547 -0.004383
vn -0.935885 -0.241673 -0.256347
vn 0.003166 0.615396 0.788212
vn 0.211583 0.615186 0.759460
vn 0.233964 0.641901 0.730222
vn 0.021103 0.639895 0.768173
vn -0.763883 0.600431 -0.236572
vn -0.803126 0.595743 -0.008867
vn -0.767216 0.641094 -0.019454
vn -0.738434 0.613577 -0.279711
vn 0.156363 0.577552 -0.801239
vn -0.010654 0.590854 -0.806709
vn -0.010668 0.639772 -0.768491
vn 0.176283 0.584154 -0.792268
vn 0.798927 0.601276 -0.013530
vn 0.771471 0.581982 -0.257155
vn 0.760878 0.584740 -0.281325
vn 0.764408 0.644692 -0.007190
vn 0.077265 0.757874 0.647809
vn 0.253928 0.697671 0.669908
vn -0.529201 0.848212 -0.021967
vn -0.530374 0.796654 -0.289907
vn 0.005264 0.834739 -0.550620
vn 0.187025 0.818173 -0.543705
vn 0.540469 0.841305 0.009936
vn 0.506063 0.820296 -0.266485
vn 0.137345 -0.698960 0.701848
vn 0.001739 -0.674454 0.738315
vn -0.738769 -0.673959 0.000111
vn -0.724512 -0.648108 -0.234602
vn 0.002096 -0.677110 -0.735879
vn 0.214356 -0.656652 -0.723090
vn 0.697721 -0.705094 -0.126598
vn 0.742729 -0.669592 0.000096
vn -0.280478 0.577092 0.767005
vn -0.246551 0.596776 0.763591
vn -0.355543 -0.175100 0.918112
vn -0.016966 -0.996528 0.081513
vn -0.165571 -0.692971 0.701696
vn -0.261008 0.068806 0.962881
vn -0.272591 -0.627075 0.729706
vn -0.284875 -0.925754 -0.248648
vn -0.293876 -0.955843 0.000153
vn -0.380025 0.053910 -0.923404
vn -0.318024 -0.672168 -0.668618
vn -0.257600 -0.644731 -0.719697
vn -0.017459 -0.996140 -0.086020
vn -0.230470 -0.216409 -0.948710
vn -0.207610 0.600213 -0.772426
vn -0.245617 0.611131 -0.752457
vn -0.258934 0.808949 -0.527782
vn -0.286219 0.958164 0.000426
vn -0.264689 0.926493 -0.267489
vn -0.177295 0.797072 0.577272
vn 0.769079 0.595926 0.231064
vn 0.742228 0.610591 0.276182
vn 0.928253 -0.274336 0.251171
vn 0.080247 -0.996693 0.012748
vn 0.695772 -0.707587 0.123380
vn 0.977668 0.067676 0.198959
vn 0.764521 -0.605336 0.221529
vn 0.240291 -0.939697 0.243370
vn 0.001140 -0.967676 0.252193
vn -0.284810 -0.927152 0.243460
vn -0.689825 -0.668583 0.277737
vn -0.938617 0.048016 0.341603
vn -0.722750 -0.652199 0.228624
vn -0.085034 -0.996248 0.016073
vn -0.906688 -0.337804 0.252596
vn -0.792319 0.567183 0.224799
vn -0.779818 0.579657 0.236393
vn -0.495727 0.841506 0.214761
vn -0.287725 0.926957 0.240760
vn 0.004306 0.968245 0.249968
vn 0.242104 0.939734 0.241425
vn 0.531322 0.793060 0.297915
s 1
g pCube1
usemtl initialShadingGroup
f 39/86/1 2/90/2 25/88/3 38/4/4
s 2
f 65/5/5 66/6/6 11/7/7 47/8/8
s 3
f 41/9/9 28/10/10 8/11/11 40/85/12
s 4
f 40/12/13 8/11/14 55/13/15 56/14/16
s 5
f 55/13/17 8/11/18 28/10/19 54/15/20
s 6
f 7/16/21 57/17/22 58/18/23 27/19/24
s 1
f 36/20/25 4/21/26 17/22/27 35/23/28
s 5
f 52/24/29 6/25/30 20/26/31 51/27/32
s 3
f 6/25/33 43/28/34 44/71/35 20/26/36
s 6
f 5/30/37 60/31/38 61/67/39 19/33/40
s 1
f 34/34/41 13/35/42 21/36/43 33/37/44
s 6
f 15/38/45 62/39/46 63/40/47 23/41/48
s 3
f 16/42/49 45/43/50 46/44/51 24/45/52
s 5
f 50/46/53 16/42/54 24/45/55 49/47/56
s 1
f 35/73/28 17/70/27 13/35/42 34/34/41
s 6
f 19/68/40 61/32/39 62/39/46 15/38/45
s 3
f 20/72/36 44/29/35 45/43/50 16/42/49
s 5
f 51/69/32 20/72/31 16/42/54 50/46/53
s 1
f 48/48/57 33/37/44 21/36/43 10/49/58
s 6
f 23/41/48 63/40/47 64/50/59 12/51/60
s 3
f 24/45/52 46/44/51 47/8/61 11/7/62
s 5
f 66/6/63 49/47/56 24/45/55 11/7/64
s 1
f 38/4/4 25/88/3 29/89/65 37/53/66
s 6
f 27/19/24 58/18/23 59/75/67 31/55/68
s 3
f 42/79/69 32/57/70 28/10/10 41/9/9
s 5
f 54/15/20 28/10/19 32/57/71 53/58/72
s 1
f 37/81/66 29/78/65 4/21/26 36/20/25
s 6
f 31/76/68 59/54/67 60/31/38 5/30/37
s 3
f 43/28/34 6/25/33 32/80/70 42/56/69
s 5
f 53/77/72 32/80/71 6/25/30 52/24/29
s 1
f 14/59/73 34/34/41 33/37/44 22/60/74
f 18/74/75 35/73/28 34/34/41 14/59/73
f 3/62/76 36/20/25 35/23/28 18/61/75
f 30/82/77 37/81/66 36/20/25 3/62/76
f 26/64/78 38/4/4 37/53/66 30/63/77
f 1/65/79 39/86/1 38/4/4 26/64/78
s 4
f 7/87/80 40/12/13 56/14/16 57/83/81
s 3
f 27/19/82 41/9/9 40/85/12 7/16/83
f 31/55/84 42/79/69 41/9/9 27/19/82
f 5/30/85 43/28/34 42/56/69 31/76/84
f 44/71/35 43/28/34 5/30/85 19/33/86
f 45/43/50 44/29/35 19/68/86 15/38/87
f 46/44/51 45/43/50 15/38/87 23/41/88
f 47/8/61 46/44/51 23/41/88 12/51/89
s 2
f 64/50/90 65/5/5 47/8/8 12/51/91
s 1
f 22/60/74 33/37/44 48/48/57 9/66/92
s 5
f 13/35/93 50/46/53 49/47/56 21/36/94
f 17/70/95 51/69/32 50/46/53 13/35/93
f 4/21/96 52/24/29 51/27/32 17/22/95
f 29/78/97 53/77/72 52/24/29 4/21/96
f 25/3/98 54/15/20 53/58/72 29/52/97
f 2/2/99 55/13/17 54/15/20 25/3/98
s 4
f 56/14/16 55/13/15 2/2/100 39/1/101
f 57/83/81 56/14/16 39/1/101 1/84/102
s 6
f 58/18/23 57/17/22 1/65/103 26/64/104
f 59/75/67 58/18/23 26/64/104 30/63/105
f 60/31/38 59/54/67 30/82/105 3/62/106
f 61/67/39 60/31/38 3/62/106 18/61/107
f 62/39/46 61/32/39 18/74/107 14/59/108
f 63/40/47 62/39/46 14/59/108 22/60/109
f 64/50/59 63/40/47 22/60/109 9/66/110
s 2
f 9/66/111 48/48/112 65/5/5 64/50/90
f 48/48/112 10/49/113 66/6/6 65/5/5
s 5
f 21/36/94 49/47/56 66/6/63 10/49/114
