# This file uses centimeters as units for non-parametric coordinates.

mtllib screwdriver.mtl
g default
v -0.797398 -3.292297 0.796237
v 0.809857 -3.292297 0.796237
v -0.904093 11.485276 0.921485
v 0.742384 11.485276 0.921485
v -0.904018 11.485276 -0.780465
v 0.754628 11.485276 -0.836661
v -0.797398 -3.292297 -0.811018
v 0.809857 -3.292297 -0.811018
v -0.255796 11.491205 0.258590
v 0.225814 11.491205 0.258590
v 0.225814 11.491205 -0.223021
v -0.255796 11.491205 -0.223021
v -0.255796 19.896194 0.258590
v 0.225814 19.896194 0.258590
v 0.225814 19.896194 -0.223021
v -0.255796 19.896194 -0.223021
v -0.340833 22.105736 0.035248
v 0.310851 22.105736 0.035248
v 0.310851 22.105736 0.000322
v -0.340833 22.105736 0.000322
v 1.168841 11.485276 -0.054501
v 0.318663 11.491205 0.007568
v 0.318663 19.896194 0.007568
v 0.310851 22.105736 0.017044
v -0.340833 22.105736 0.017044
v -0.381657 19.896194 0.007568
v -0.381657 11.491205 0.007568
v -1.231835 11.485276 -0.054501
v -1.085066 -3.292297 -0.041486
v 1.022072 -3.292297 -0.041486
v -0.142775 11.485277 1.284161
v -0.055563 11.491209 0.394789
v -0.055563 19.896198 0.394789
v -0.069890 22.105736 0.035248
v -0.069890 22.105736 0.017044
v -0.069890 22.105736 0.000322
v -0.055563 19.896198 -0.320055
v -0.055563 11.491209 -0.320055
v -0.142775 11.485277 -1.209427
v -0.129168 -3.292297 -1.032800
v -0.113041 -2.249619 -0.028466
v -0.129168 -3.292297 1.107534
v -1.231835 10.543047 -0.054501
v -0.904093 10.543047 0.921485
v -0.142775 10.543048 1.284161
v 0.742384 10.543047 0.921485
v 1.168841 10.543047 -0.054501
v 0.754628 10.543047 -0.836661
v -0.142775 10.543048 -1.209427
v -0.904018 10.543047 -0.780465
v -0.911102 10.304429 -0.028466
v -0.670934 10.304429 0.670934
v -0.113041 10.304430 0.930830
v 0.670934 10.304429 0.670934
v 0.848108 10.304429 -0.028466
v 0.670934 10.304429 -0.670934
v -0.113041 10.304430 -0.856096
v -0.670934 10.304429 -0.670934
v 1.022072 9.337162 -0.041486
v 0.809857 9.337162 0.796237
v -0.129168 9.337163 1.107534
v -0.797398 9.337162 0.796237
v -1.085066 9.337162 -0.041486
v -0.797398 9.337162 -0.811018
v -0.129168 9.337163 -1.032800
v 0.809857 9.337162 -0.811018
vt 0.375000 0.000000
vt 0.625000 0.000000
vt 0.375000 0.250000
vt 0.625000 0.250000
vt 0.375000 0.500000
vt 0.625000 0.500000
vt 0.375000 0.750000
vt 0.625000 0.750000
vt 0.375000 1.000000
vt 0.625000 1.000000
vt 0.875000 0.000000
vt 0.875000 0.250000
vt 0.125000 0.000000
vt 0.125000 0.250000
vt 0.375000 0.250000
vt 0.625000 0.250000
vt 0.625000 0.500000
vt 0.375000 0.500000
vt 0.375000 0.250000
vt 0.625000 0.250000
vt 0.625000 0.500000
vt 0.375000 0.500000
vt 0.375000 0.250000
vt 0.625000 0.250000
vt 0.625000 0.500000
vt 0.375000 0.500000
vt 0.625000 0.380303
vt 0.755304 0.250000
vt 0.625000 0.380303
vt 0.625000 0.380303
vt 0.625000 0.380303
vt 0.375000 0.380303
vt 0.375000 0.380303
vt 0.375000 0.380303
vt 0.244697 0.250000
vt 0.375000 0.380303
vt 0.244697 0.000000
vt 0.375000 0.869697
vt 0.625000 0.869697
vt 0.755304 0.000000
vt 0.478940 0.250000
vt 0.478940 0.250000
vt 0.478940 0.250000
vt 0.478940 0.250000
vt 0.478940 0.380303
vt 0.478940 0.500000
vt 0.478940 0.500000
vt 0.478940 0.500000
vt 0.478940 0.500000
vt 0.478940 0.750000
vt 0.478940 0.869697
vt 0.478940 0.000000
vt 0.478940 1.000000
vt 0.244697 0.232850
vt 0.375000 0.232850
vt 0.478940 0.232850
vt 0.625000 0.232850
vt 0.755304 0.232850
vt 0.625000 0.517150
vt 0.875000 0.232850
vt 0.478940 0.517150
vt 0.125000 0.232850
vt 0.375000 0.517150
vt 0.244697 0.228506
vt 0.375000 0.228506
vt 0.478940 0.228506
vt 0.625000 0.228506
vt 0.755304 0.228506
vt 0.625000 0.521494
vt 0.875000 0.228506
vt 0.478940 0.521494
vt 0.125000 0.228506
vt 0.375000 0.521494
vt 0.755304 0.191922
vt 0.625000 0.191922
vt 0.478940 0.191922
vt 0.375000 0.191922
vt 0.244697 0.191922
vt 0.125000 0.191922
vt 0.375000 0.558078
vt 0.478940 0.558078
vt 0.625000 0.558078
vt 0.875000 0.191922
vn -0.756516 -0.204661 0.621126
vn -0.002285 -0.208235 0.978076
vn 0.000000 0.000000 1.000000
vn -0.775717 0.000000 0.631081
vn 0.000000 1.000000 0.000000
vn 0.000000 1.000000 0.000000
vn 0.000000 1.000000 0.000000
vn 0.000000 1.000000 0.000000
vn -0.727548 0.000000 -0.686057
vn -0.033861 0.000000 -0.999427
vn -0.032077 -0.171226 -0.984709
vn -0.720135 -0.191361 -0.666923
vn 0.596716 -0.802453 -0.000023
vn -0.018910 -0.999708 -0.015076
vn -0.013647 -0.852672 -0.522269
vn 0.540768 -0.710760 -0.449878
vn 0.688403 -0.185362 0.701243
vn 0.989322 -0.145666 0.004902
vn 0.999976 0.000000 0.006965
vn 0.714285 0.000000 0.699855
vn -0.980315 -0.197437 -0.001118
vn -1.000000 0.000000 -0.000044
vn -0.005043 0.999978 0.004336
vn -0.000185 0.999979 0.006475
vn 0.000036 0.999979 0.006500
vn -0.005234 0.999978 0.004151
vn 0.004894 0.999975 0.005156
vn 0.007117 0.999975 -0.000063
vn 0.007130 0.999975 0.000138
vn 0.005294 0.999974 0.004816
vn -0.000285 0.999977 -0.006744
vn -0.005074 0.999976 -0.004764
vn -0.004954 0.999976 -0.004890
vn -0.000116 0.999977 -0.006761
vn -0.006766 0.999977 -0.000054
vn -0.006772 0.999977 0.000076
vn -0.764898 0.000000 0.644151
vn -0.000001 0.000000 1.000000
vn 0.000001 0.000000 1.000000
vn -0.776021 0.000768 0.630707
vn 0.719071 0.000000 0.694937
vn 1.000000 0.000000 -0.000000
vn 1.000000 0.000086 -0.000112
vn 0.736780 -0.000045 0.676132
vn -0.000001 0.000000 -1.000000
vn -0.708759 0.000000 -0.705451
vn -0.723493 0.001029 -0.690331
vn 0.000001 0.000000 -1.000000
vn -1.000000 0.000000 -0.000000
vn -0.999998 0.001799 -0.000135
vn -0.275699 0.119605 0.953774
vn 0.002515 0.126273 0.991992
vn -0.000972 0.126252 0.991998
vn -0.275699 0.119605 0.953774
vn 0.999999 0.000690 0.000981
vn 0.945359 -0.000742 0.326029
vn 0.001549 0.118904 -0.992905
vn -0.200365 0.115202 -0.972925
vn -0.200365 0.115202 -0.972925
vn -0.000695 0.118890 -0.992907
vn -0.905837 0.011432 0.423472
vn -0.999892 0.014618 0.001330
vn 0.004685 0.999974 -0.005416
vn 0.004780 0.999974 -0.005332
vn 0.658705 0.000000 -0.752401
vn 0.680296 0.000133 -0.732937
vn 0.936193 0.002157 -0.351479
vn 0.000000 1.000000 0.000000
vn 0.000000 1.000000 0.000000
vn -0.891125 0.014978 -0.453510
vn 0.510685 -0.704772 0.492440
vn -0.007318 -0.827911 0.560812
vn 0.643697 -0.176408 -0.744671
vn 0.660855 0.000000 -0.750514
vn 0.199904 0.124985 0.971811
vn 0.199904 0.124985 0.971811
vn 0.000000 1.000000 0.000000
vn 0.000000 1.000000 0.000000
vn 0.000000 1.000000 0.000000
vn 0.143980 0.118576 -0.982451
vn 0.143980 0.118576 -0.982451
vn -0.428953 -0.753552 0.498155
vn -0.503876 -0.863776 0.000279
vn -0.455573 -0.764267 -0.456453
vn -0.988597 -0.150532 0.004088
vn -0.758678 -0.191968 0.622540
vn 0.002033 -0.167711 0.985834
vn 0.716139 -0.121291 0.687338
vn 0.996579 -0.082500 0.004948
vn 0.657022 -0.095332 -0.747820
vn -0.001450 -0.111504 -0.993763
vn -0.706841 -0.134737 -0.694422
vn -1.000000 0.000000 -0.000000
vn -0.945791 0.000000 0.324777
vn -0.768612 0.011525 0.639611
vn -0.999935 0.011385 -0.000154
vn -0.422280 0.000000 0.906466
vn -0.000000 0.000000 1.000000
vn -0.000090 0.011511 0.999934
vn 0.706415 0.011987 0.707696
vn 0.314671 0.000000 0.949201
vn 0.969380 0.000000 0.245567
vn 1.000000 0.000000 -0.000000
vn 0.999934 0.011486 -0.000122
vn 0.652506 0.012541 -0.757680
vn 0.964015 0.000000 -0.265849
vn 0.000000 0.000000 -1.000000
vn -0.000094 0.011633 -0.999932
vn 0.229860 0.000000 -0.973224
vn -0.719718 0.012144 -0.694160
vn -0.314999 0.000000 -0.949092
vn -0.936691 0.000000 -0.350156
s 1
g pCube1
usemtl initialShadingGroup
f 44/55/1 45/56/2 31/41/3 3/3/4
s 2
f 17/23/5 34/44/6 35/45/7 25/32/8
s 1
f 5/5/9 39/49/10 49/61/11 50/63/12
s 4
f 29/38/13 41/51/14 42/53/15 1/9/16
s 1
f 46/57/17 47/58/18 21/28/19 4/4/20
f 43/54/21 44/55/1 3/3/4 28/35/22
s 6
f 3/3/23 31/41/24 32/42/25 9/15/26
f 4/4/27 21/27/28 22/29/29 10/16/30
f 39/49/31 5/5/32 12/18/33 38/48/34
f 28/36/35 3/3/23 9/15/26 27/34/36
s 9
f 9/15/37 32/42/38 33/43/39 13/19/40
f 10/16/41 22/29/42 23/30/43 14/20/44
f 38/48/45 12/18/46 16/22/47 37/47/48
f 27/34/49 9/15/37 13/19/40 26/33/50
s 12
f 13/19/51 33/43/52 34/44/53 17/23/54
s 9
f 14/20/44 23/30/43 24/31/55 18/24/56
s 13
f 37/47/57 16/22/58 20/26/59 36/46/60
s 9
f 26/33/50 13/19/40 17/23/61 25/32/62
s 6
f 21/27/28 6/6/63 11/17/64 22/29/29
s 9
f 23/30/43 22/29/42 11/17/65 15/21/66
f 24/31/55 23/30/43 15/21/66 19/25/67
s 2
f 25/32/8 35/45/7 36/46/68 20/26/69
s 9
f 16/22/47 26/33/50 25/32/62 20/26/70
f 12/18/46 27/34/49 26/33/50 16/22/47
s 6
f 5/5/32 28/36/35 27/34/36 12/18/33
s 1
f 50/62/12 43/54/21 28/35/22 5/14/9
s 4
f 7/7/71 40/50/72 41/51/14 29/38/13
s 1
f 21/28/19 47/58/18 48/60/73 6/12/74
s 6
f 31/41/24 4/4/27 10/16/30 32/42/25
s 9
f 33/43/39 32/42/38 10/16/41 14/20/44
s 12
f 34/44/53 33/43/52 14/20/75 18/24/76
s 2
f 35/45/7 34/44/6 18/24/77 24/31/78
f 36/46/68 35/45/7 24/31/78 19/25/79
s 13
f 15/21/80 37/47/57 36/46/60 19/25/81
s 9
f 11/17/65 38/48/45 37/47/48 15/21/66
s 6
f 6/6/63 39/49/31 38/48/34 11/17/64
s 1
f 49/61/11 39/49/10 6/6/74 48/59/73
s 4
f 41/51/14 40/50/72 8/8/82 30/39/83
f 42/53/15 41/51/14 30/39/83 2/10/84
s 1
f 31/41/3 45/56/2 46/57/17 4/4/20
f 51/64/85 52/65/86 44/55/1 43/54/21
f 52/65/86 53/66/87 45/56/2 44/55/1
f 46/57/17 45/56/2 53/66/87 54/67/88
f 54/67/88 55/68/89 47/58/18 46/57/17
f 48/60/73 47/58/18 55/68/89 56/70/90
f 57/71/91 49/61/11 48/59/73 56/69/90
f 50/63/12 49/61/11 57/71/91 58/73/92
f 58/72/92 51/64/85 43/54/21 50/62/12
f 29/37/93 1/1/94 62/77/95 63/78/96
f 1/1/97 42/52/98 61/76/99 62/77/95
f 60/75/100 61/76/99 42/52/98 2/2/101
f 2/2/102 30/40/103 59/74/104 60/75/100
f 66/83/105 59/74/104 30/40/103 8/11/106
f 40/50/107 65/81/108 66/82/105 8/8/109
f 64/80/110 65/81/108 40/50/107 7/7/111
f 7/13/112 29/37/93 63/78/96 64/79/110
f 60/75/100 59/74/104 55/68/89 54/67/88
f 54/67/88 53/66/87 61/76/99 60/75/100
f 62/77/95 61/76/99 53/66/87 52/65/86
f 63/78/96 62/77/95 52/65/86 51/64/85
f 64/79/110 63/78/96 51/64/85 58/72/92
f 58/73/92 57/71/91 65/81/108 64/80/110
f 66/82/105 65/81/108 57/71/91 56/69/90
f 56/70/90 55/68/89 59/74/104 66/83/105
